<svg width="217" height="217" viewBox="0 0 217 217" fill="none" xmlns="http://www.w3.org/2000/svg">
<path d="M167.195 49.5443C134.759 17.1079 81.9807 17.1074 49.5443 49.5439L46.6878 34.8595L31.7049 31.7045C73.9775 -10.5682 142.762 -10.5682 185.035 31.7049L181.875 46.6868L167.195 49.5443Z" fill="url(#paint0_linear_938_71807)"/>
<path d="M31.7048 185.035C-10.5683 142.762 -10.5683 73.9777 31.7048 31.7046L46.6877 34.8596L49.5442 49.544C17.1077 81.9803 17.1077 134.759 49.5442 167.195L34.8603 170.047L31.7048 185.035Z" fill="url(#paint1_linear_938_71807)"/>
<path d="M185.035 185.034C142.762 227.308 73.978 227.308 31.7049 185.034L34.8604 170.046L49.5443 167.195C81.9808 199.632 134.759 199.632 167.196 167.195L170.048 181.874L185.035 185.034Z" fill="url(#paint2_linear_938_71807)"/>
<path d="M185.035 31.7045C227.308 73.9776 227.308 142.761 185.035 185.035L170.052 181.88L167.195 167.195C199.632 134.759 199.632 81.9802 167.195 49.5437L181.879 46.6925L185.035 31.7045Z" fill="url(#paint3_linear_938_71807)"/>
<path d="M101.896 17.4302V8.84028H104.492L106.051 14.6997L107.592 8.84028H110.193V17.4302H108.582V10.6684L106.877 17.4302H105.207L103.508 10.6684V17.4302H101.896Z" fill="white"/>
<path d="M102.476 203.045L104.164 202.881C104.265 203.447 104.471 203.863 104.779 204.129C105.092 204.394 105.512 204.527 106.039 204.527C106.597 204.527 107.017 204.41 107.299 204.176C107.584 203.937 107.726 203.66 107.726 203.344C107.726 203.14 107.666 202.969 107.545 202.828C107.428 202.683 107.221 202.558 106.924 202.453C106.721 202.383 106.258 202.258 105.535 202.078C104.605 201.848 103.953 201.564 103.578 201.228C103.051 200.756 102.787 200.18 102.787 199.5C102.787 199.062 102.91 198.654 103.156 198.275C103.406 197.892 103.764 197.601 104.228 197.402C104.697 197.203 105.262 197.103 105.922 197.103C107 197.103 107.81 197.34 108.353 197.812C108.9 198.285 109.187 198.916 109.215 199.705L107.48 199.781C107.406 199.34 107.246 199.023 107 198.832C106.758 198.637 106.392 198.539 105.904 198.539C105.4 198.539 105.006 198.642 104.721 198.849C104.537 198.982 104.445 199.16 104.445 199.383C104.445 199.586 104.531 199.76 104.703 199.904C104.922 200.088 105.453 200.279 106.297 200.478C107.14 200.678 107.764 200.885 108.166 201.099C108.572 201.31 108.889 201.601 109.115 201.973C109.346 202.34 109.461 202.795 109.461 203.338C109.461 203.83 109.324 204.291 109.051 204.721C108.777 205.15 108.39 205.471 107.89 205.682C107.39 205.889 106.767 205.992 106.021 205.992C104.935 205.992 104.101 205.742 103.519 205.242C102.937 204.738 102.59 204.006 102.476 203.045Z" fill="white"/>
<path d="M200.979 108.507V107.059H204.718V110.481C204.354 110.833 203.827 111.143 203.136 111.413C202.448 111.679 201.751 111.811 201.044 111.811C200.145 111.811 199.362 111.624 198.694 111.249C198.026 110.87 197.524 110.331 197.188 109.632C196.852 108.929 196.684 108.165 196.684 107.341C196.684 106.446 196.872 105.651 197.247 104.956C197.622 104.261 198.171 103.727 198.893 103.356C199.444 103.071 200.13 102.929 200.95 102.929C202.017 102.929 202.849 103.153 203.446 103.602C204.048 104.048 204.435 104.665 204.606 105.454L202.884 105.776C202.763 105.354 202.534 105.022 202.198 104.78C201.866 104.534 201.45 104.411 200.95 104.411C200.192 104.411 199.589 104.651 199.14 105.132C198.694 105.612 198.472 106.325 198.472 107.27C198.472 108.29 198.698 109.056 199.151 109.567C199.604 110.075 200.198 110.329 200.933 110.329C201.296 110.329 201.659 110.259 202.022 110.118C202.39 109.974 202.704 109.8 202.966 109.597V108.507H200.979ZM210.173 111.665H208.526V105.46C207.925 106.022 207.216 106.438 206.399 106.708V105.214C206.829 105.073 207.296 104.808 207.8 104.417C208.304 104.022 208.649 103.563 208.837 103.04H210.173V111.665Z" fill="white"/>
<path d="M9.4667 108.505V107.058H13.205V110.48C12.8417 110.831 12.3144 111.142 11.623 111.412C10.9355 111.677 10.2382 111.81 9.53115 111.81C8.63271 111.81 7.8495 111.622 7.18153 111.247C6.51356 110.869 6.0116 110.33 5.67566 109.63C5.33972 108.927 5.17175 108.163 5.17175 107.339C5.17175 106.445 5.35925 105.65 5.73426 104.954C6.10926 104.259 6.65809 103.726 7.38075 103.355C7.93153 103.07 8.61708 102.927 9.4374 102.927C10.5038 102.927 11.3358 103.152 11.9335 103.601C12.5351 104.046 12.9218 104.663 13.0937 105.453L11.371 105.775C11.2499 105.353 11.0214 105.021 10.6855 104.779C10.3534 104.533 9.9374 104.41 9.4374 104.41C8.67958 104.41 8.07606 104.65 7.62684 105.13C7.18153 105.611 6.95887 106.324 6.95887 107.269C6.95887 108.288 7.18543 109.054 7.63856 109.566C8.09169 110.074 8.68544 110.328 9.41982 110.328C9.7831 110.328 10.1464 110.257 10.5097 110.117C10.8769 109.972 11.1913 109.798 11.453 109.595V108.505H9.4667ZM20.0078 110.134V111.664H14.2363C14.2988 111.085 14.4863 110.539 14.7988 110.023C15.1113 109.503 15.7284 108.816 16.6503 107.96C17.3925 107.269 17.8476 106.8 18.0156 106.554C18.2421 106.214 18.3554 105.878 18.3554 105.546C18.3554 105.179 18.2558 104.898 18.0566 104.703C17.8613 104.503 17.5898 104.404 17.2421 104.404C16.8984 104.404 16.6249 104.507 16.4218 104.714C16.2187 104.921 16.1015 105.265 16.0702 105.746L14.4296 105.581C14.5273 104.675 14.8339 104.025 15.3495 103.63C15.8652 103.236 16.5097 103.038 17.2831 103.038C18.1308 103.038 18.7968 103.267 19.2812 103.724C19.7656 104.181 20.0078 104.749 20.0078 105.429C20.0078 105.816 19.9375 106.185 19.7968 106.537C19.6601 106.884 19.4414 107.249 19.1406 107.632C18.9414 107.886 18.582 108.251 18.0624 108.728C17.5429 109.205 17.2128 109.521 17.0722 109.677C16.9355 109.833 16.8242 109.986 16.7382 110.134H20.0078Z" fill="white"/>
<defs>
<linearGradient id="paint0_linear_938_71807" x1="185.035" y1="24.7722" x2="31.7048" y2="24.7722" gradientUnits="userSpaceOnUse">
<stop stop-color="#F6783E"/>
<stop offset="0.1604" stop-color="#F67C43"/>
<stop offset="0.3589" stop-color="#F68652"/>
<stop offset="0.5773" stop-color="#F6976C"/>
<stop offset="0.8085" stop-color="#F6AF8E"/>
<stop offset="1" stop-color="#F6C7B1"/>
</linearGradient>
<linearGradient id="paint1_linear_938_71807" x1="24.7722" y1="31.7046" x2="24.7722" y2="185.035" gradientUnits="userSpaceOnUse">
<stop stop-color="#F6783E"/>
<stop offset="0.1604" stop-color="#F67C43"/>
<stop offset="0.3589" stop-color="#F68652"/>
<stop offset="0.5773" stop-color="#F6976C"/>
<stop offset="0.8085" stop-color="#F6AF8E"/>
<stop offset="1" stop-color="#F6C7B1"/>
</linearGradient>
<linearGradient id="paint2_linear_938_71807" x1="31.7048" y1="191.967" x2="185.035" y2="191.967" gradientUnits="userSpaceOnUse">
<stop stop-color="#F6783E"/>
<stop offset="0.1604" stop-color="#F67C43"/>
<stop offset="0.3589" stop-color="#F68652"/>
<stop offset="0.5773" stop-color="#F6976C"/>
<stop offset="0.8085" stop-color="#F6AF8E"/>
<stop offset="1" stop-color="#F6C7B1"/>
</linearGradient>
<linearGradient id="paint3_linear_938_71807" x1="191.967" y1="185.035" x2="191.967" y2="31.7045" gradientUnits="userSpaceOnUse">
<stop stop-color="#F6783E"/>
<stop offset="0.1604" stop-color="#F67C43"/>
<stop offset="0.3589" stop-color="#F68652"/>
<stop offset="0.5773" stop-color="#F6976C"/>
<stop offset="0.8085" stop-color="#F6AF8E"/>
<stop offset="1" stop-color="#F6C7B1"/>
</linearGradient>
</defs>
</svg>
