<svg width="71" height="24" viewBox="0 0 71 24" fill="none" xmlns="http://www.w3.org/2000/svg">
<mask id="mask0_938_24699" style="mask-type:luminance" maskUnits="userSpaceOnUse" x="0" y="0" width="10" height="24">
<rect width="10" height="24" transform="matrix(-1 0 0 1 10 0)" fill="white"/>
</mask>
<g mask="url(#mask0_938_24699)">
<path d="M10 1C10.5523 1 11 1.44772 11 2V22C11 22.5523 10.5523 23 10 23H8C7.62123 23 7.27486 22.786 7.10547 22.4473C6.1518 20.5399 4.67374 18.0739 3.41992 16.0654C2.79579 15.0656 2.23184 14.1864 1.82422 13.5576C1.62045 13.2433 1.45529 12.9911 1.3418 12.8184C1.28532 12.7324 1.24155 12.666 1.21191 12.6211C1.19718 12.5988 1.18523 12.5816 1.17773 12.5703C1.17419 12.565 1.17177 12.5604 1.16992 12.5576C1.169 12.5562 1.16841 12.5544 1.16797 12.5537H1.16699V12.5527C0.94466 12.2177 0.94466 11.7823 1.16699 11.4473V11.4463H1.16797C1.16841 11.4456 1.169 11.4438 1.16992 11.4424C1.17177 11.4396 1.17419 11.435 1.17773 11.4297C1.18523 11.4184 1.19718 11.4012 1.21191 11.3789C1.24155 11.334 1.28532 11.2676 1.3418 11.1816C1.45529 11.0089 1.62045 10.7567 1.82422 10.4424C2.23184 9.81358 2.79579 8.93435 3.41992 7.93457C4.67374 5.92608 6.1518 3.46006 7.10547 1.55273L7.17676 1.43164C7.36169 1.16367 7.66854 1 8 1H10Z" fill="#00AF7E" stroke="url(#paint0_linear_938_24699)" stroke-width="2" stroke-miterlimit="3.99933" stroke-linejoin="round"/>
</g>
<mask id="mask1_938_24699" style="mask-type:luminance" maskUnits="userSpaceOnUse" x="61" y="0" width="10" height="24">
<rect width="10" height="24" transform="matrix(1 -8.74228e-08 -8.74228e-08 -1 61 24)" fill="white"/>
</mask>
<g mask="url(#mask1_938_24699)">
<path d="M61 1C60.4477 1 60 1.44772 60 2V22C60 22.5523 60.4477 23 61 23H63C63.3788 23 63.7251 22.786 63.8945 22.4473C64.8482 20.5399 66.3263 18.0739 67.5801 16.0654C68.2042 15.0656 68.7682 14.1864 69.1758 13.5576C69.3795 13.2433 69.5447 12.9911 69.6582 12.8184C69.7147 12.7324 69.7584 12.666 69.7881 12.6211C69.8028 12.5988 69.8148 12.5816 69.8223 12.5703C69.8258 12.565 69.8282 12.5604 69.8301 12.5576C69.831 12.5562 69.8316 12.5544 69.832 12.5537H69.833V12.5527C70.0553 12.2177 70.0553 11.7823 69.833 11.4473V11.4463H69.832C69.8316 11.4456 69.831 11.4438 69.8301 11.4424C69.8282 11.4396 69.8258 11.435 69.8223 11.4297C69.8148 11.4184 69.8028 11.4012 69.7881 11.3789C69.7584 11.334 69.7147 11.2676 69.6582 11.1816C69.5447 11.0089 69.3795 10.7567 69.1758 10.4424C68.7682 9.81358 68.2042 8.93435 67.5801 7.93457C66.3263 5.92608 64.8482 3.46006 63.8945 1.55273L63.8232 1.43164C63.6383 1.16367 63.3315 1 63 1H61Z" fill="#00AF7E" stroke="url(#paint1_linear_938_24699)" stroke-width="2" stroke-miterlimit="3.99933" stroke-linejoin="round"/>
</g>
<mask id="path-5-outside-1_938_24699" maskUnits="userSpaceOnUse" x="8" y="0" width="55" height="24" fill="black">
<rect fill="white" x="8" width="55" height="24"/>
<path d="M8 2H63V22H8V2Z"/>
</mask>
<path d="M8 2H63V22H8V2Z" fill="#00AF7E"/>
<path d="M8 2V4H63V2V0H8V2ZM63 22V20H8V22V24H63V22Z" fill="url(#paint2_linear_938_24699)" mask="url(#path-5-outside-1_938_24699)"/>
<path d="M8.95117 16V7.41016H10.5977V10.5039C11.1055 9.92578 11.707 9.63672 12.4023 9.63672C13.1602 9.63672 13.7871 9.91211 14.2832 10.4629C14.7793 11.0098 15.0273 11.7969 15.0273 12.8242C15.0273 13.8867 14.7734 14.7051 14.2656 15.2793C13.7617 15.8535 13.1484 16.1406 12.4258 16.1406C12.0703 16.1406 11.7188 16.0527 11.3711 15.877C11.0273 15.6973 10.7305 15.4336 10.4805 15.0859V16H8.95117ZM10.5859 12.7539C10.5859 13.3984 10.6875 13.875 10.8906 14.1836C11.1758 14.6211 11.5547 14.8398 12.0273 14.8398C12.3906 14.8398 12.6992 14.6855 12.9531 14.377C13.2109 14.0645 13.3398 13.5742 13.3398 12.9062C13.3398 12.1953 13.2109 11.6836 12.9531 11.3711C12.6953 11.0547 12.3652 10.8965 11.9629 10.8965C11.5684 10.8965 11.2402 11.0508 10.9785 11.3594C10.7168 11.6641 10.5859 12.1289 10.5859 12.7539ZM16.3457 16V7.41016H18.9414L20.5 13.2695L22.041 7.41016H24.6426V16H23.0312V9.23828L21.3262 16H19.6562L17.957 9.23828V16H16.3457ZM31.8613 12.8418L33.543 13.375C33.2852 14.3125 32.8555 15.0098 32.2539 15.4668C31.6562 15.9199 30.8965 16.1465 29.9746 16.1465C28.834 16.1465 27.8965 15.7578 27.1621 14.9805C26.4277 14.1992 26.0605 13.1328 26.0605 11.7812C26.0605 10.3516 26.4297 9.24219 27.168 8.45312C27.9062 7.66016 28.877 7.26367 30.0801 7.26367C31.1309 7.26367 31.9844 7.57422 32.6406 8.19531C33.0312 8.5625 33.3242 9.08984 33.5195 9.77734L31.8027 10.1875C31.7012 9.74219 31.4883 9.39062 31.1641 9.13281C30.8438 8.875 30.4531 8.74609 29.9922 8.74609C29.3555 8.74609 28.8379 8.97461 28.4395 9.43164C28.0449 9.88867 27.8477 10.6289 27.8477 11.6523C27.8477 12.7383 28.043 13.5117 28.4336 13.9727C28.8242 14.4336 29.332 14.6641 29.957 14.6641C30.418 14.6641 30.8145 14.5176 31.1465 14.2246C31.4785 13.9316 31.7168 13.4707 31.8613 12.8418ZM34.8379 13.709V12.0625H38.0723V13.709H34.8379ZM44.5293 12.8418L46.2109 13.375C45.9531 14.3125 45.5234 15.0098 44.9219 15.4668C44.3242 15.9199 43.5645 16.1465 42.6426 16.1465C41.502 16.1465 40.5645 15.7578 39.8301 14.9805C39.0957 14.1992 38.7285 13.1328 38.7285 11.7812C38.7285 10.3516 39.0977 9.24219 39.8359 8.45312C40.5742 7.66016 41.5449 7.26367 42.748 7.26367C43.7988 7.26367 44.6523 7.57422 45.3086 8.19531C45.6992 8.5625 45.9922 9.08984 46.1875 9.77734L44.4707 10.1875C44.3691 9.74219 44.1562 9.39062 43.832 9.13281C43.5117 8.875 43.1211 8.74609 42.6602 8.74609C42.0234 8.74609 41.5059 8.97461 41.1074 9.43164C40.7129 9.88867 40.5156 10.6289 40.5156 11.6523C40.5156 12.7383 40.7109 13.5117 41.1016 13.9727C41.4922 14.4336 42 14.6641 42.625 14.6641C43.0859 14.6641 43.4824 14.5176 43.8145 14.2246C44.1465 13.9316 44.3848 13.4707 44.5293 12.8418ZM47.3125 12.8008C47.3125 12.2539 47.4473 11.7246 47.7168 11.2129C47.9863 10.7012 48.3672 10.3105 48.8594 10.041C49.3555 9.77148 49.9082 9.63672 50.5176 9.63672C51.459 9.63672 52.2305 9.94336 52.832 10.5566C53.4336 11.166 53.7344 11.9375 53.7344 12.8711C53.7344 13.8125 53.4297 14.5938 52.8203 15.2148C52.2148 15.832 51.4512 16.1406 50.5293 16.1406C49.959 16.1406 49.4141 16.0117 48.8945 15.7539C48.3789 15.4961 47.9863 15.1191 47.7168 14.623C47.4473 14.123 47.3125 13.5156 47.3125 12.8008ZM49 12.8887C49 13.5059 49.1465 13.9785 49.4395 14.3066C49.7324 14.6348 50.0938 14.7988 50.5234 14.7988C50.9531 14.7988 51.3125 14.6348 51.6016 14.3066C51.8945 13.9785 52.041 13.502 52.041 12.877C52.041 12.2676 51.8945 11.7988 51.6016 11.4707C51.3125 11.1426 50.9531 10.9785 50.5234 10.9785C50.0938 10.9785 49.7324 11.1426 49.4395 11.4707C49.1465 11.7988 49 12.2715 49 12.8887ZM62.7871 16H60.9004L60.1504 14.0488H56.7168L56.0078 16H54.168L57.5137 7.41016H59.3477L62.7871 16ZM59.5938 12.6016L58.4102 9.41406L57.25 12.6016H59.5938Z" fill="white"/>
<defs>
<linearGradient id="paint0_linear_938_24699" x1="6" y1="2" x2="6" y2="22" gradientUnits="userSpaceOnUse">
<stop stop-color="#79FADA"/>
<stop offset="1" stop-color="#00AF7E"/>
</linearGradient>
<linearGradient id="paint1_linear_938_24699" x1="65" y1="2" x2="65" y2="22" gradientUnits="userSpaceOnUse">
<stop stop-color="#79FADA"/>
<stop offset="1" stop-color="#00AF7E"/>
</linearGradient>
<linearGradient id="paint2_linear_938_24699" x1="35.5" y1="2" x2="35.5" y2="22" gradientUnits="userSpaceOnUse">
<stop stop-color="#79FADA"/>
<stop offset="1" stop-color="#00AF7E"/>
</linearGradient>
</defs>
</svg>
