<svg width="52" height="23" viewBox="0 0 52 23" fill="none" xmlns="http://www.w3.org/2000/svg">
<path d="M1.12713 11.6007C1.12713 6.01895 5.65204 1.49404 11.2338 1.49404H40.5431C46.1249 1.49404 50.6498 6.01895 50.6498 11.6007C50.6498 17.1825 46.1249 21.7074 40.5431 21.7074H11.2338C5.65204 21.7074 1.12713 17.1825 1.12713 11.6007Z" fill="url(#paint0_linear_938_23697)"/>
<path d="M41.5821 3.0646C41.2382 3.01848 40.8928 2.99271 40.5431 2.98713C30.7733 2.85384 21.0036 2.49209 11.2338 1.63554C11.2338 1.54118 11.2338 1.44682 11.2338 1.35246C21.0036 0.495909 30.7733 0.134152 40.5431 0.000868426C41.011 -0.00465273 41.4766 0.017796 41.9422 0.0689306C47.6313 0.609867 52.2182 6.00479 51.9922 11.6007C51.9882 11.8325 51.9774 12.0607 51.9598 12.2908C51.6513 18.1577 46.0962 22.9069 40.5436 22.4814C40.5435 22.4814 40.5433 22.4814 40.5431 22.4814C35.4548 22.2351 30.3661 22.0577 25.2778 22.1652C20.5966 22.2609 15.9151 22.618 11.2338 22.8322C10.7803 22.8508 10.3277 22.8416 9.87378 22.8034C4.32497 22.415 -0.273304 17.0939 0.0129415 11.6007C0.0189856 11.3736 0.0317761 11.1502 0.0514293 10.925C0.419804 5.17596 5.99508 0.677192 11.2338 1.35246C11.2338 1.44682 11.2338 1.54118 11.2338 1.63554C6.14266 2.08063 2.26734 6.48355 2.23902 11.0554C2.23444 11.2376 2.23523 11.4178 2.24124 11.6007C2.32617 16.0039 5.86285 19.8529 10.1549 20.4658C10.5108 20.5249 10.8694 20.5639 11.2338 20.5826C15.9151 20.7966 20.5966 21.1525 25.2778 21.2483C30.3661 21.3557 35.4548 21.1798 40.5431 20.9335C40.5433 20.9334 40.5434 20.9334 40.5435 20.9334C45.3205 20.7374 49.2146 16.5859 49.3036 12.1325C49.3102 11.955 49.3115 11.7792 49.3075 11.6007C49.2829 7.30001 45.7339 3.52472 41.5821 3.0646Z" fill="#2C67CE"/>
<path d="M9.56778 6.96191H11.3207V11.6639C11.3207 12.41 11.3424 12.8937 11.3858 13.1147C11.4608 13.47 11.6385 13.7563 11.9188 13.9734C12.203 14.1866 12.5899 14.2932 13.0795 14.2932C13.5769 14.2932 13.9519 14.1925 14.2046 13.9912C14.4573 13.7859 14.6093 13.5352 14.6606 13.2391C14.7119 12.943 14.7376 12.4515 14.7376 11.7645V6.96191H16.4905V11.5218C16.4905 12.564 16.4431 13.3003 16.3483 13.7306C16.2536 14.1609 16.0779 14.5241 15.8213 14.8202C15.5686 15.1163 15.2291 15.3532 14.8027 15.5309C14.3763 15.7046 13.8197 15.7914 13.1327 15.7914C12.3037 15.7914 11.674 15.6967 11.2437 15.5072C10.8173 15.3137 10.4797 15.065 10.231 14.761C9.98231 14.4531 9.81847 14.1313 9.73951 13.7958C9.62502 13.2983 9.56778 12.564 9.56778 11.5928V6.96191ZM18.3499 15.6434V6.96191H22.0393C22.967 6.96191 23.6401 7.04086 24.0586 7.19878C24.481 7.35275 24.8186 7.6291 25.0713 8.02784C25.3239 8.42658 25.4503 8.88257 25.4503 9.3958C25.4503 10.0472 25.2588 10.5861 24.8758 11.0125C24.4929 11.4349 23.9204 11.7014 23.1585 11.8119C23.5375 12.033 23.8494 12.2758 24.0941 12.5403C24.3429 12.8048 24.6765 13.2746 25.0949 13.9497L26.155 15.6434H24.0586L22.7913 13.7543C22.3413 13.0792 22.0333 12.6548 21.8675 12.4811C21.7017 12.3034 21.526 12.183 21.3405 12.1199C21.1549 12.0527 20.8608 12.0192 20.4581 12.0192H20.1028V15.6434H18.3499ZM20.1028 10.6335H21.3997C22.2406 10.6335 22.7657 10.5979 22.9749 10.5269C23.1841 10.4558 23.348 10.3334 23.4664 10.1597C23.5849 9.98601 23.6441 9.76888 23.6441 9.50831C23.6441 9.21617 23.5651 8.98127 23.4072 8.80361C23.2532 8.62201 23.0341 8.50752 22.7499 8.46014C22.6078 8.4404 22.1814 8.43053 21.4708 8.43053H20.1028V10.6335ZM27.0847 15.6434V6.96191H29.7081L31.2833 12.8838L32.8408 6.96191H35.4701V15.6434H33.8416V8.80953L32.1183 15.6434H30.4306L28.7132 8.80953V15.6434H27.0847ZM41.1018 15.6434H39.4377V9.37211C38.8297 9.94061 38.1132 10.3611 37.2881 10.6335V9.12339C37.7224 8.98127 38.1941 8.71281 38.7034 8.31802C39.2127 7.91928 39.5621 7.4554 39.7516 6.92638H41.1018V15.6434Z" fill="white"/>
<defs>
<linearGradient id="paint0_linear_938_23697" x1="25.8885" y1="1.49404" x2="25.8885" y2="21.7074" gradientUnits="userSpaceOnUse">
<stop stop-color="#2C67CE"/>
<stop offset="1" stop-color="#CF9039"/>
</linearGradient>
</defs>
</svg>
