<svg width="35" height="24" viewBox="0 0 35 24" fill="none" xmlns="http://www.w3.org/2000/svg">
<mask id="mask0_938_24658" style="mask-type:luminance" maskUnits="userSpaceOnUse" x="0" y="0" width="10" height="24">
<rect width="10" height="24" transform="matrix(-1 0 0 1 10 0)" fill="white"/>
</mask>
<g mask="url(#mask0_938_24658)">
<path d="M10 1C10.5523 1 11 1.44772 11 2V22C11 22.5523 10.5523 23 10 23H8C7.62123 23 7.27486 22.786 7.10547 22.4473C6.1518 20.5399 4.67374 18.0739 3.41992 16.0654C2.79579 15.0656 2.23184 14.1864 1.82422 13.5576C1.62045 13.2433 1.45529 12.9911 1.3418 12.8184C1.28532 12.7324 1.24155 12.666 1.21191 12.6211C1.19718 12.5988 1.18523 12.5816 1.17773 12.5703C1.17419 12.565 1.17177 12.5604 1.16992 12.5576C1.169 12.5562 1.16841 12.5544 1.16797 12.5537H1.16699V12.5527C0.94466 12.2177 0.94466 11.7823 1.16699 11.4473V11.4463H1.16797C1.16841 11.4456 1.169 11.4438 1.16992 11.4424C1.17177 11.4396 1.17419 11.435 1.17773 11.4297C1.18523 11.4184 1.19718 11.4012 1.21191 11.3789C1.24155 11.334 1.28532 11.2676 1.3418 11.1816C1.45529 11.0089 1.62045 10.7567 1.82422 10.4424C2.23184 9.81358 2.79579 8.93435 3.41992 7.93457C4.67374 5.92608 6.1518 3.46006 7.10547 1.55273L7.17676 1.43164C7.36169 1.16367 7.66854 1 8 1H10Z" fill="#6E77E5" stroke="#92F2FF" stroke-width="2" stroke-miterlimit="3.99933" stroke-linejoin="round"/>
</g>
<mask id="mask1_938_24658" style="mask-type:luminance" maskUnits="userSpaceOnUse" x="25" y="0" width="10" height="24">
<rect width="10" height="24" transform="matrix(1 -8.74228e-08 -8.74228e-08 -1 25 24)" fill="white"/>
</mask>
<g mask="url(#mask1_938_24658)">
<path d="M25 1C24.4477 1 24 1.44772 24 2V22C24 22.5523 24.4477 23 25 23H27C27.3788 23 27.7251 22.786 27.8945 22.4473C28.8482 20.5399 30.3263 18.0739 31.5801 16.0654C32.2042 15.0656 32.7682 14.1864 33.1758 13.5576C33.3795 13.2433 33.5447 12.9911 33.6582 12.8184C33.7147 12.7324 33.7584 12.666 33.7881 12.6211C33.8028 12.5988 33.8148 12.5816 33.8223 12.5703C33.8258 12.565 33.8282 12.5604 33.8301 12.5576C33.831 12.5562 33.8316 12.5544 33.832 12.5537H33.833V12.5527C34.0553 12.2177 34.0553 11.7823 33.833 11.4473V11.4463H33.832C33.8316 11.4456 33.831 11.4438 33.8301 11.4424C33.8282 11.4396 33.8258 11.435 33.8223 11.4297C33.8148 11.4184 33.8028 11.4012 33.7881 11.3789C33.7584 11.334 33.7147 11.2676 33.6582 11.1816C33.5447 11.0089 33.3795 10.7567 33.1758 10.4424C32.7682 9.81358 32.2042 8.93435 31.5801 7.93457C30.3263 5.92608 28.8482 3.46006 27.8945 1.55273L27.8232 1.43164C27.6383 1.16367 27.3315 1 27 1H25Z" fill="#6E77E5" stroke="#92F2FF" stroke-width="2" stroke-miterlimit="3.99933" stroke-linejoin="round"/>
</g>
<mask id="path-5-outside-1_938_24658" maskUnits="userSpaceOnUse" x="8" y="0" width="19" height="24" fill="black">
<rect fill="white" x="8" width="19" height="24"/>
<path d="M8 2H27V22H8V2Z"/>
</mask>
<path d="M8 2H27V22H8V2Z" fill="#6E77E5"/>
<path d="M8 2V4H27V2V0H8V2ZM27 22V20H8V22V24H27V22Z" fill="#92F2FF" mask="url(#path-5-outside-1_938_24658)"/>
<path d="M9.08008 16V7.48047H10.8145V14.5527H15.127V16H9.08008ZM16.3691 16V7.41016H19.1523C20.207 7.41016 20.8945 7.45312 21.2148 7.53906C21.707 7.66797 22.1191 7.94922 22.4512 8.38281C22.7832 8.8125 22.9492 9.36914 22.9492 10.0527C22.9492 10.5801 22.8535 11.0234 22.6621 11.3828C22.4707 11.7422 22.2266 12.0254 21.9297 12.2324C21.6367 12.4355 21.3379 12.5703 21.0332 12.6367C20.6191 12.7188 20.0195 12.7598 19.2344 12.7598H18.1035V16H16.3691ZM18.1035 8.86328V11.3008H19.0527C19.7363 11.3008 20.1934 11.2559 20.4238 11.166C20.6543 11.0762 20.834 10.9355 20.9629 10.7441C21.0957 10.5527 21.1621 10.3301 21.1621 10.0762C21.1621 9.76367 21.0703 9.50586 20.8867 9.30273C20.7031 9.09961 20.4707 8.97266 20.1895 8.92188C19.9824 8.88281 19.5664 8.86328 18.9414 8.86328H18.1035ZM24.3203 16V7.41016H26.0547V16H24.3203Z" fill="white"/>
</svg>
